<svg xmlns="http://www.w3.org/2000/svg" viewBox="0 0 527.29 567.61">
  <rect x="57.84" y="80.27" width="407.07" height="407.07" rx="66.25" ry="66.25"/>
  <path fill="#defea4" d="M261.42,218.54c-4.92-11.83-13.65-20.77-25.8-25.9,11.98-4.92,20.77-13.99,25.83-25.79,5.01,12.05,13.83,20.66,25.68,25.81-12,5.23-20.77,13.94-25.71,25.88Z"/>
  <path fill="#defea4" d="M350.29,250.33l-65.39,26.99,7.83-27.4,57.56.41Z"/>
  <path fill="#f9f9f9" d="M369.92,250.23l32.71-.54-8.22,28.74-76.96.06-6.76,21.55,52.63.1c9.57.49,18.41,5.05,21.86,14.06,1.95,5.1,1.97,11.06.46,16.35l-7.67,26.79c-5.51,15.24-19.17,24.03-35.29,25.29l-86.58.18,7.94-29.16,75.39-.02c4.41-.56,7.92-2.93,8.96-7.15l2.98-12.04c.76-3.07-1.97-5.99-5.31-5.99l-76.01-.06,11.21-38.76,23.51-9.77,46.77-20.37"/>
  <path fill="#f9f9f9" d="M174.51,304.62l63.81.07-16.23,28.41-55.59.09-13.78,49.41-32.61.05,30-104.71c7.19-14.99,19.61-25.68,36.1-28.06l85.45-.05-16.96,28.42-69.25.04c-1.77.23-3.77,1.05-4.24,2.72l-6.7,23.59Z"/>
</svg>
